<svg id="svg" version="1.1" xmlns="http://www.w3.org/2000/svg" xmlns:xlink="http://www.w3.org/1999/xlink" width="400" height="400" viewBox="0, 0, 400,400"><g id="svgg"><path id="path0" d="M131.438 50.900 C 118.170 73.558,120.608 101.907,136.484 109.560 C 141.614 112.033,149.365 113.888,149.796 112.745 C 149.909 112.445,146.581 102.774,142.401 91.254 C 138.220 79.734,134.800 69.872,134.800 69.338 C 134.800 65.313,139.610 62.668,143.081 64.784 C 144.766 65.811,145.053 66.422,148.987 77.310 C 150.832 82.419,152.912 88.130,153.608 90.000 C 154.304 91.870,155.380 94.840,156.000 96.600 C 157.113 99.762,159.120 105.202,159.932 107.261 C 160.882 109.669,162.216 108.769,165.955 103.193 C 172.053 94.102,172.551 87.508,167.870 77.865 C 162.051 65.879,152.363 56.901,139.000 51.113 C 133.422 48.696,132.740 48.677,131.438 50.900 M139.086 51.658 C 159.705 60.701,173.982 80.913,169.601 94.858 C 168.123 99.564,162.602 108.131,161.200 107.894 C 160.797 107.826,158.206 101.212,153.325 87.796 C 149.324 76.798,145.739 67.211,145.357 66.491 C 142.641 61.362,134.400 63.433,134.400 69.244 C 134.400 69.950,137.180 78.194,140.577 87.564 C 150.760 115.649,150.072 112.882,146.733 112.354 C 135.941 110.649,128.672 105.221,125.860 96.768 C 121.520 83.722,122.935 68.974,129.866 55.015 C 133.057 48.588,132.526 48.781,139.086 51.658 M111.400 149.386 C 74.923 155.164,60.632 209.047,87.971 237.721 C 120.609 271.953,170.248 235.354,158.662 185.600 C 153.186 162.085,132.294 146.077,111.400 149.386 M124.681 150.249 C 150.551 155.414,166.607 188.401,157.367 217.400 C 146.305 252.120,107.716 261.823,86.339 235.259 C 60.843 203.577,77.214 153.520,114.400 149.457 C 116.522 149.225,121.455 149.605,124.681 150.249 M150.000 149.643 C 150.000 149.886,151.683 151.856,153.740 154.019 C 159.681 160.267,164.316 167.713,167.424 176.000 C 168.043 177.650,168.714 179.221,168.916 179.491 C 169.198 179.869,176.399 180.006,200.412 180.091 C 231.143 180.199,231.556 180.211,232.646 181.025 C 236.365 183.801,236.243 188.804,232.406 190.855 C 231.083 191.562,229.525 191.600,201.530 191.600 C 181.933 191.600,171.963 191.737,171.795 192.008 C 171.657 192.232,171.496 196.147,171.437 200.708 C 171.225 217.363,166.146 231.680,156.329 243.298 C 154.491 245.473,155.083 245.508,159.478 243.485 C 163.482 241.642,165.409 240.953,170.000 239.724 C 172.407 239.080,177.698 239.012,241.350 238.814 L 310.100 238.600 311.871 236.600 C 315.153 232.894,318.253 228.005,317.587 227.584 C 317.235 227.361,299.224 227.209,272.600 227.205 C 229.302 227.197,228.168 227.178,226.922 226.418 C 224.240 224.783,223.386 221.921,224.743 219.117 C 226.493 215.503,221.896 215.814,275.386 215.694 C 301.339 215.635,322.724 215.436,322.908 215.252 C 324.113 214.047,325.382 203.627,325.078 197.434 C 324.780 191.382,323.979 187.158,321.933 180.854 C 320.010 174.928,320.072 174.046,322.620 171.178 C 324.608 168.939,324.592 168.986,323.800 167.600 C 323.437 166.965,323.223 166.827,323.214 167.220 C 323.206 167.561,323.395 168.035,323.633 168.273 C 323.944 168.584,323.594 169.143,322.393 170.253 C 319.120 173.278,318.904 174.984,321.016 181.134 C 322.593 185.728,322.993 187.502,323.822 193.600 C 324.689 199.974,324.475 204.290,322.914 211.900 L 322.320 214.800 275.460 214.809 C 230.626 214.817,228.529 214.850,226.960 215.562 C 222.996 217.363,221.870 222.283,224.663 225.602 C 226.814 228.158,223.690 228.000,272.180 228.000 C 302.927 228.000,316.400 228.129,316.400 228.422 C 316.400 229.071,313.522 233.158,311.415 235.500 L 309.526 237.600 243.628 237.600 C 176.604 237.600,174.910 237.632,169.000 239.013 C 167.092 239.459,162.018 241.171,160.859 241.760 C 158.033 243.197,157.807 243.028,159.488 240.740 C 168.355 228.678,172.470 215.737,172.474 199.900 L 172.476 192.800 200.965 192.800 C 225.215 192.800,229.758 192.710,231.490 192.196 C 237.367 190.450,238.183 182.746,232.782 179.991 C 231.278 179.223,230.325 179.200,200.459 179.200 C 171.524 179.200,169.669 179.158,169.407 178.500 C 169.255 178.115,168.673 176.540,168.114 175.000 C 165.318 167.287,155.383 152.293,152.389 151.267 C 150.132 150.493,158.751 150.396,220.500 150.497 L 289.000 150.609 292.400 151.744 C 297.045 153.294,301.555 155.692,305.561 158.740 C 310.221 162.287,312.616 162.752,315.884 160.744 C 317.209 159.929,318.800 160.223,318.800 161.281 C 318.800 161.530,318.904 161.629,319.032 161.501 C 320.517 160.016,316.312 158.979,314.592 160.407 C 312.984 161.741,310.198 161.022,306.624 158.348 C 299.701 153.169,294.758 150.916,287.871 149.799 C 283.148 149.033,150.000 148.882,150.000 149.643 M319.828 162.355 C 319.707 162.550,319.896 162.947,320.246 163.238 C 320.597 163.529,321.040 164.180,321.232 164.684 C 321.423 165.188,321.769 165.600,321.999 165.600 C 322.484 165.600,321.272 163.559,320.501 163.075 C 320.216 162.897,320.088 162.582,320.215 162.375 C 320.343 162.169,320.357 162.000,320.247 162.000 C 320.137 162.000,319.949 162.160,319.828 162.355 M113.607 162.852 C 91.015 165.458,77.472 192.770,87.193 216.120 C 92.299 228.387,103.681 236.825,115.291 236.953 L 119.581 237.000 121.055 235.529 C 125.088 231.504,122.515 226.283,116.146 225.569 C 96.405 223.355,88.447 195.354,103.364 180.593 C 117.108 166.993,136.363 176.777,138.356 198.375 C 138.824 203.451,140.528 205.644,144.043 205.697 C 148.599 205.766,150.128 203.533,149.863 197.200 C 149.142 180.035,136.274 164.616,121.335 163.016 C 120.051 162.879,118.460 162.708,117.800 162.636 C 117.140 162.565,115.253 162.662,113.607 162.852 M125.446 164.314 C 139.429 168.772,149.570 183.232,149.595 198.747 L 149.600 202.094 148.047 203.647 C 144.261 207.433,138.836 204.518,138.809 198.683 C 138.738 183.170,124.364 170.497,111.687 174.771 C 87.912 182.789,91.055 223.844,115.600 225.890 C 119.815 226.241,121.945 227.839,122.291 230.909 C 123.231 239.249,108.514 238.564,97.854 229.771 C 74.549 210.549,83.434 168.894,112.000 163.450 C 114.407 162.991,123.037 163.546,125.446 164.314 M261.932 180.011 C 256.328 182.971,257.717 191.002,264.075 192.398 C 267.824 193.221,288.224 192.787,290.124 191.843 C 294.957 189.443,294.860 182.313,289.960 179.780 C 288.019 178.776,263.893 178.975,261.932 180.011 M290.138 180.922 C 294.208 183.591,293.430 189.878,288.863 191.220 C 285.725 192.142,263.196 191.540,261.731 190.495 C 258.039 187.861,259.031 181.714,263.358 180.422 C 265.860 179.674,288.891 180.104,290.138 180.922 M48.066 250.423 C 45.142 250.944,40.468 252.552,37.483 254.062 C 34.702 255.470,32.148 255.686,30.685 254.639 C 30.198 254.290,29.390 253.709,28.889 253.347 C 28.388 252.985,27.903 252.764,27.810 252.856 C 27.718 252.949,28.558 253.649,29.677 254.412 C 32.454 256.307,34.267 256.240,38.807 254.074 C 56.471 245.648,76.945 252.169,88.690 269.961 C 104.309 293.624,98.831 328.620,77.079 344.130 C 49.933 363.486,14.886 342.674,12.029 305.503 C 11.714 301.403,11.714 301.402,11.657 304.400 C 11.450 315.413,17.250 329.646,25.548 338.488 C 53.537 368.313,98.047 345.296,98.047 300.997 C 98.047 269.768,74.304 245.743,48.066 250.423 M173.666 250.425 C 157.495 253.294,143.035 268.160,138.662 286.408 C 137.241 292.341,137.045 294.071,137.029 300.800 C 136.925 347.543,186.339 369.836,212.585 334.887 C 239.353 299.242,213.594 243.338,173.666 250.425 M212.986 250.423 C 212.831 250.673,214.344 252.540,216.475 254.732 C 221.877 260.287,225.632 265.735,229.066 273.000 L 230.200 275.400 286.018 275.600 C 338.476 275.788,341.900 275.842,342.912 276.506 C 346.362 278.766,346.325 283.564,342.841 285.892 L 341.482 286.800 287.990 286.800 C 227.332 286.800,233.247 286.398,234.057 290.469 C 235.025 295.341,234.708 308.602,233.483 314.423 C 230.602 328.119,224.538 339.473,215.236 348.587 C 213.896 349.901,212.800 351.116,212.800 351.287 C 212.800 351.459,232.285 351.604,256.100 351.610 C 306.028 351.621,303.877 351.425,305.270 356.077 C 305.519 356.908,306.097 357.905,306.554 358.294 C 307.061 358.724,307.209 358.766,306.932 358.400 C 306.683 358.070,306.280 357.058,306.038 356.152 C 305.472 354.036,304.211 352.448,302.546 351.752 C 301.451 351.294,293.771 351.200,257.613 351.200 C 231.641 351.200,214.000 351.053,214.000 350.836 C 214.000 350.635,214.585 349.988,215.300 349.397 C 228.974 338.104,237.583 313.408,235.023 292.818 C 234.710 290.298,234.542 288.093,234.650 287.918 C 234.759 287.743,258.720 287.600,287.897 287.600 C 340.736 287.600,340.954 287.597,342.659 286.772 C 346.487 284.918,347.442 280.471,344.687 277.332 C 342.312 274.627,346.334 274.800,285.683 274.800 L 230.540 274.800 229.388 272.300 C 226.322 265.648,222.350 259.764,217.267 254.342 C 215.690 252.661,214.400 251.171,214.400 251.032 C 214.400 250.894,245.225 250.833,282.900 250.897 L 351.400 251.013 354.979 252.090 C 379.157 259.369,392.829 287.434,385.918 315.600 C 385.675 316.590,385.302 317.625,385.089 317.900 C 384.784 318.293,376.996 318.400,348.538 318.400 C 318.521 318.400,312.148 318.495,311.040 318.958 C 306.655 320.790,306.145 327.165,310.163 329.918 L 311.450 330.800 344.625 330.806 C 363.850 330.810,378.042 330.965,378.375 331.176 C 379.641 331.977,372.159 340.412,367.073 343.917 C 358.231 350.011,353.059 351.196,335.280 351.198 C 321.094 351.200,320.757 351.307,318.832 356.400 C 317.810 359.105,317.809 359.151,318.800 357.891 C 319.240 357.331,319.601 356.632,319.601 356.337 C 319.604 355.312,321.172 353.235,322.482 352.519 C 323.655 351.879,325.359 351.775,338.000 351.568 C 351.137 351.354,352.423 351.270,355.173 350.447 C 363.965 347.815,372.200 341.977,377.730 334.456 C 381.041 329.952,384.537 330.400,346.100 330.399 C 308.740 330.399,310.855 330.556,308.908 327.641 C 307.338 325.290,308.020 321.695,310.334 320.123 C 311.338 319.442,313.550 319.388,348.280 319.200 C 372.063 319.071,385.302 318.858,385.560 318.600 C 386.804 317.353,388.400 307.350,388.400 300.798 C 388.400 277.156,374.459 256.787,354.507 251.279 L 350.600 250.200 281.929 250.091 C 232.232 250.012,213.183 250.104,212.986 250.423 M190.053 251.721 C 224.077 261.356,234.709 311.624,208.485 338.868 C 181.869 366.521,140.176 346.184,137.411 304.200 C 135.223 270.989,162.405 243.891,190.053 251.721 M94.935 258.500 C 115.652 284.456,114.065 323.525,91.331 347.211 C 89.287 349.340,87.732 351.198,87.874 351.341 C 88.353 351.819,147.200 351.643,147.200 351.163 C 147.200 350.923,145.663 349.168,143.784 347.263 C 123.282 326.480,119.614 289.907,135.535 265.021 C 137.240 262.355,137.830 262.488,123.400 262.286 C 108.897 262.082,106.606 261.755,99.083 258.814 C 94.035 256.840,93.583 256.806,94.935 258.500 M18.425 261.240 C 18.411 261.592,18.937 262.672,19.593 263.640 C 21.416 266.330,21.263 268.092,18.838 272.353 C 14.299 280.327,11.523 289.932,11.658 297.200 L 11.714 300.200 12.028 296.200 C 12.669 288.028,14.423 282.009,18.477 274.068 C 21.636 267.881,21.890 266.328,20.157 263.775 C 19.584 262.930,18.965 261.870,18.783 261.419 C 18.544 260.830,18.444 260.779,18.425 261.240 M178.874 262.427 C 175.235 263.203,173.377 267.472,175.238 270.782 C 176.389 272.830,177.800 273.547,181.618 274.026 C 202.292 276.618,210.328 305.861,194.639 321.410 C 180.470 335.453,160.408 325.718,157.826 303.547 C 157.089 297.220,155.632 295.203,151.800 295.203 C 141.566 295.203,145.604 318.289,157.949 330.360 C 186.478 358.255,228.376 319.650,210.217 282.200 C 204.117 269.620,189.216 260.220,178.874 262.427 M186.800 263.384 C 191.933 264.680,195.297 266.292,199.464 269.456 C 221.423 286.124,217.682 325.314,193.075 336.387 C 175.156 344.450,154.653 334.138,148.409 313.924 C 144.820 302.303,146.073 295.600,151.833 295.600 C 155.297 295.600,156.953 297.870,157.380 303.200 C 159.331 327.597,184.564 337.169,197.849 318.552 C 210.013 301.506,200.828 275.965,181.680 273.585 C 177.527 273.069,175.890 272.059,175.138 269.552 C 173.546 264.236,178.918 261.394,186.800 263.384 M51.400 264.012 C 35.149 265.721,21.266 282.898,22.057 300.315 C 22.480 309.634,33.600 308.806,33.600 299.456 C 33.600 281.625,51.896 269.784,65.296 278.941 C 83.595 291.445,76.190 326.400,55.242 326.400 C 49.247 326.400,46.747 334.097,51.719 337.247 C 54.640 339.097,63.927 337.421,69.784 333.986 C 101.813 315.203,87.370 260.229,51.400 264.012 M61.200 264.975 C 76.720 268.831,87.215 283.377,87.195 301.000 C 87.172 320.662,73.063 337.258,56.272 337.373 L 52.344 337.400 50.972 335.906 C 47.584 332.216,50.262 326.812,55.487 326.795 C 59.809 326.782,64.826 324.431,68.643 320.631 C 84.090 305.253,74.934 275.400,54.770 275.400 L 50.140 275.400 46.731 277.089 C 38.983 280.928,34.085 288.827,33.211 298.892 C 32.728 304.454,30.790 306.764,27.072 306.209 C 22.627 305.547,21.500 302.056,22.986 293.552 C 26.384 274.108,44.233 260.759,61.200 264.975 M251.569 319.310 C 247.530 322.031,247.348 327.271,251.200 329.900 C 252.490 330.781,252.759 330.800,263.766 330.800 L 275.014 330.800 276.450 329.824 C 280.264 327.233,280.057 322.022,276.031 319.310 C 273.928 317.892,253.672 317.892,251.569 319.310 M275.881 319.984 C 279.655 322.285,279.088 328.073,274.913 329.852 C 272.636 330.822,254.318 330.625,252.218 329.608 C 248.374 327.748,248.087 322.198,251.719 319.984 C 253.681 318.788,273.919 318.788,275.881 319.984 " stroke="none" fill="#8c4815" fill-rule="evenodd"></path><path id="path1" d="M112.589 150.017 C 76.559 154.728,61.411 207.269,87.715 236.294 C 115.273 266.703,159.452 244.204,159.375 199.800 C 159.323 169.768,137.677 146.736,112.589 150.017 M124.236 163.209 C 137.211 166.527,147.142 177.859,149.820 192.400 C 151.557 201.833,149.612 206.263,143.896 205.896 C 139.819 205.635,138.264 203.426,137.849 197.310 C 136.512 177.553,116.301 167.814,103.559 180.786 C 89.006 195.601,96.632 222.748,116.029 225.180 C 126.819 226.533,125.491 238.162,114.625 237.482 C 91.067 236.008,76.426 206.647,87.325 182.735 C 94.190 167.675,109.672 159.485,124.236 163.209 M47.645 251.394 C 43.968 252.226,41.362 253.132,38.400 254.606 C 33.806 256.893,31.921 256.808,28.768 254.173 C 26.732 252.472,26.603 252.528,21.943 257.118 L 18.486 260.524 19.143 261.588 C 19.504 262.172,20.204 263.269,20.699 264.025 C 22.261 266.415,21.959 268.036,18.804 274.192 C 2.663 305.692,17.795 344.771,48.380 350.572 C 78.351 356.258,103.941 322.601,95.955 288.000 C 90.221 263.153,68.477 246.677,47.645 251.394 M173.200 251.400 C 137.434 259.507,125.128 311.236,152.400 338.831 C 182.145 368.927,227.859 339.669,222.462 293.989 C 219.197 266.350,195.942 246.245,173.200 251.400 M190.112 263.502 C 205.106 268.671,214.518 282.943,214.576 300.600 C 214.689 334.856,179.873 352.700,157.186 330.014 C 146.668 319.496,141.842 299.065,149.052 295.575 C 153.666 293.341,157.463 296.091,158.013 302.066 C 158.606 308.513,159.553 311.813,162.017 316.031 C 174.100 336.714,200.990 327.740,202.283 302.592 C 203.058 287.513,194.466 275.867,181.471 274.385 C 175.272 273.678,172.489 269.784,174.910 265.205 C 176.831 261.573,182.629 260.923,190.112 263.502 M60.400 264.050 C 85.722 268.011,96.993 305.150,79.275 326.245 C 68.491 339.086,48.538 342.947,48.701 332.162 C 48.758 328.390,50.850 326.635,56.096 325.957 C 79.830 322.888,82.668 283.556,59.659 276.573 C 47.388 272.849,34.000 284.937,34.000 299.741 C 34.000 306.890,25.756 309.885,22.419 303.949 C 21.561 302.422,21.508 301.978,21.714 298.049 C 22.651 280.160,35.486 265.402,51.608 263.676 C 54.783 263.336,56.234 263.398,60.400 264.050 " stroke="none" fill="#ffe8cf" fill-rule="evenodd"></path><path id="path2" d="M126.256 36.707 C 122.554 39.247,115.731 51.938,112.981 61.400 C 107.886 78.930,109.806 98.748,117.729 110.400 C 123.531 118.933,136.037 125.227,148.473 125.873 L 153.146 126.115 153.788 128.158 C 154.142 129.281,154.587 130.560,154.778 131.000 C 154.969 131.440,155.432 132.610,155.807 133.600 C 156.181 134.590,156.576 135.622,156.684 135.894 C 156.838 136.281,151.761 136.421,133.140 136.544 C 110.217 136.695,105.833 136.866,105.020 137.639 C 104.811 137.837,104.147 138.000,103.544 138.000 C 102.941 138.000,102.336 138.180,102.200 138.400 C 102.064 138.620,101.601 138.800,101.171 138.800 C 100.741 138.800,100.077 138.965,99.695 139.166 C 99.313 139.368,98.370 139.799,97.600 140.124 C 84.883 145.496,74.724 155.240,68.231 168.293 C 65.283 174.220,64.364 176.752,62.456 184.200 C 60.928 190.166,60.456 204.049,61.552 210.800 C 62.873 218.946,64.547 224.132,68.233 231.500 L 71.084 237.200 59.566 237.200 C 52.318 237.200,47.956 237.348,47.800 237.600 C 47.664 237.820,46.674 238.000,45.600 238.000 C 44.526 238.000,43.536 238.180,43.400 238.400 C 43.264 238.620,42.771 238.800,42.305 238.800 C 40.290 238.800,33.252 241.598,29.508 243.887 C 26.615 245.657,24.881 252.800,27.345 252.800 C 27.865 252.800,28.969 253.340,29.800 254.000 C 32.151 255.868,33.821 255.794,38.473 253.615 C 61.377 242.881,88.084 257.133,95.786 284.200 C 105.519 318.404,83.591 353.251,53.200 351.878 C 19.263 350.343,-0.077 305.585,18.838 272.353 C 21.124 268.336,21.426 266.104,19.939 264.213 C 19.465 263.611,18.853 262.462,18.578 261.659 C 18.092 260.240,18.017 260.197,15.861 260.081 C 11.479 259.845,9.614 261.701,5.490 270.400 C 2.904 275.856,2.827 276.058,0.754 282.800 C 0.320 284.208,0.200 288.167,0.200 301.000 C 0.200 318.423,0.131 317.671,2.290 323.800 C 2.833 325.340,3.380 326.953,3.507 327.384 C 3.970 328.961,8.469 337.344,10.111 339.689 C 11.040 341.016,12.186 342.675,12.658 343.375 C 14.419 345.989,22.013 353.157,25.463 355.463 C 29.670 358.275,37.141 362.000,38.572 362.000 C 38.891 362.000,39.252 362.160,39.373 362.356 C 39.494 362.551,40.179 362.812,40.896 362.934 C 41.613 363.056,43.100 363.380,44.200 363.654 C 45.770 364.045,73.805 364.179,174.627 364.277 L 303.053 364.402 304.696 362.996 C 305.648 362.181,306.449 361.088,306.601 360.395 L 306.864 359.200 312.393 359.200 L 317.922 359.200 318.306 360.300 C 318.769 361.627,321.071 363.954,322.192 364.229 C 325.104 364.944,356.903 363.987,357.780 363.159 C 357.989 362.962,358.628 362.800,359.200 362.800 C 359.772 362.800,360.411 362.657,360.620 362.482 C 360.829 362.307,361.720 361.931,362.600 361.646 C 375.157 357.589,387.361 346.166,394.271 332.000 C 396.782 326.851,397.225 325.711,399.242 319.200 C 400.050 316.592,400.054 285.426,399.246 282.800 C 397.163 276.025,397.108 275.883,394.416 270.200 C 388.032 256.729,376.518 245.542,364.100 240.747 C 361.794 239.857,361.308 239.682,359.972 239.255 C 359.186 239.005,358.187 238.800,357.752 238.800 C 357.316 238.800,356.789 238.637,356.580 238.437 C 355.892 237.779,351.953 237.522,339.900 237.348 C 333.355 237.254,328.000 237.089,328.000 236.981 C 328.000 236.873,328.420 236.113,328.934 235.292 C 330.396 232.956,332.656 228.122,334.028 224.400 C 335.686 219.898,335.999 218.749,337.240 212.600 C 338.296 207.369,338.295 192.670,337.238 187.400 C 334.363 173.063,331.863 168.693,326.339 168.342 C 324.776 168.243,324.153 168.338,324.276 168.657 C 324.373 168.908,323.640 170.029,322.646 171.148 C 320.069 174.049,320.006 174.916,321.933 180.854 C 323.979 187.158,324.780 191.382,325.078 197.434 C 325.382 203.627,324.113 214.047,322.908 215.252 C 322.724 215.436,301.339 215.635,275.386 215.694 C 221.896 215.814,226.493 215.503,224.743 219.117 C 223.386 221.921,224.240 224.783,226.922 226.418 C 228.168 227.178,229.302 227.197,272.600 227.205 C 299.224 227.209,317.235 227.361,317.587 227.584 C 318.253 228.005,315.153 232.894,311.871 236.600 L 310.100 238.600 241.350 238.814 C 177.698 239.012,172.407 239.080,170.000 239.724 C 165.409 240.953,163.482 241.642,159.478 243.485 C 155.083 245.508,154.491 245.473,156.329 243.298 C 166.146 231.680,171.225 217.363,171.437 200.708 C 171.496 196.147,171.657 192.232,171.795 192.008 C 171.963 191.737,181.933 191.600,201.530 191.600 C 229.525 191.600,231.083 191.562,232.406 190.855 C 236.243 188.804,236.365 183.801,232.646 181.025 C 231.556 180.211,231.143 180.199,200.412 180.091 C 176.399 180.006,169.198 179.869,168.916 179.491 C 168.714 179.221,168.043 177.650,167.424 176.000 C 164.316 167.713,159.681 160.267,153.740 154.019 C 151.683 151.856,150.000 149.886,150.000 149.643 C 150.000 148.882,283.148 149.033,287.871 149.799 C 294.758 150.916,299.701 153.169,306.624 158.348 C 310.335 161.124,312.671 161.673,314.844 160.279 C 315.370 159.941,316.340 159.606,317.000 159.533 C 319.083 159.305,320.063 154.830,318.635 152.068 C 317.547 149.963,308.428 142.800,306.838 142.800 C 306.597 142.800,306.400 142.664,306.400 142.498 C 306.400 142.331,305.815 141.944,305.100 141.636 C 304.385 141.329,302.990 140.730,302.000 140.306 C 301.010 139.882,299.887 139.369,299.505 139.167 C 299.123 138.965,298.459 138.800,298.029 138.800 C 297.599 138.800,297.148 138.640,297.027 138.444 C 296.906 138.249,296.221 137.986,295.504 137.861 C 294.787 137.736,293.210 137.415,292.000 137.148 C 290.346 136.783,275.243 136.629,231.153 136.528 L 172.505 136.395 171.626 133.897 C 170.485 130.656,169.211 127.210,168.781 126.200 C 168.594 125.760,168.163 124.543,167.823 123.495 L 167.206 121.589 169.641 119.095 C 174.924 113.683,180.524 105.010,181.971 100.000 C 182.257 99.010,182.640 97.840,182.821 97.400 C 184.198 94.057,184.013 83.987,182.489 79.400 C 176.729 62.054,160.774 45.477,143.800 39.203 C 143.360 39.040,142.460 38.679,141.800 38.400 C 136.495 36.159,134.312 35.599,130.973 35.624 C 128.219 35.645,127.596 35.788,126.256 36.707 M139.000 51.113 C 152.363 56.901,162.051 65.879,167.870 77.865 C 172.551 87.508,172.053 94.102,165.955 103.193 C 162.216 108.769,160.882 109.669,159.932 107.261 C 159.120 105.202,157.113 99.762,156.000 96.600 C 155.380 94.840,154.304 91.870,153.608 90.000 C 152.912 88.130,150.832 82.419,148.987 77.310 C 145.053 66.422,144.766 65.811,143.081 64.784 C 139.610 62.668,134.800 65.313,134.800 69.338 C 134.800 69.872,138.220 79.734,142.401 91.254 C 146.581 102.774,149.909 112.445,149.796 112.745 C 149.365 113.888,141.614 112.033,136.484 109.560 C 120.608 101.907,118.170 73.558,131.438 50.900 C 132.740 48.677,133.422 48.696,139.000 51.113 M122.491 149.391 C 156.027 154.446,172.019 200.988,150.843 231.906 C 130.121 262.161,89.365 255.095,76.832 219.075 C 64.382 183.297,89.825 144.467,122.491 149.391 M112.000 163.450 C 83.434 168.894,74.549 210.549,97.854 229.771 C 108.514 238.564,123.231 239.249,122.291 230.909 C 121.945 227.839,119.815 226.241,115.600 225.890 C 91.055 223.844,87.912 182.789,111.687 174.771 C 124.364 170.497,138.738 183.170,138.809 198.683 C 138.836 204.518,144.261 207.433,148.047 203.647 L 149.600 202.094 149.595 198.747 C 149.562 177.580,130.713 159.883,112.000 163.450 M263.358 180.422 C 259.031 181.714,258.039 187.861,261.731 190.495 C 263.196 191.540,285.725 192.142,288.863 191.220 C 293.430 189.878,294.208 183.591,290.138 180.922 C 288.891 180.104,265.860 179.674,263.358 180.422 M190.000 251.184 C 229.162 262.511,235.848 323.637,200.379 346.062 C 171.778 364.144,136.943 339.255,137.029 300.800 C 137.045 294.071,137.241 292.341,138.662 286.408 C 144.695 261.232,168.432 244.945,190.000 251.184 M354.507 251.279 C 374.459 256.787,388.400 277.156,388.400 300.798 C 388.400 307.350,386.804 317.353,385.560 318.600 C 385.302 318.858,372.063 319.071,348.280 319.200 C 313.550 319.388,311.338 319.442,310.334 320.123 C 308.020 321.695,307.338 325.290,308.908 327.641 C 310.855 330.556,308.740 330.399,346.100 330.399 C 384.537 330.400,381.041 329.952,377.730 334.456 C 372.200 341.977,363.965 347.815,355.173 350.447 C 352.423 351.270,351.137 351.354,338.000 351.568 C 325.359 351.775,323.655 351.879,322.482 352.519 C 321.147 353.248,319.615 355.302,319.588 356.400 C 319.539 358.409,318.385 358.800,312.498 358.800 C 306.299 358.800,306.129 358.733,305.241 355.966 C 303.787 351.431,305.923 351.621,256.100 351.610 C 232.285 351.604,212.800 351.459,212.800 351.287 C 212.800 351.116,213.896 349.901,215.236 348.587 C 224.538 339.473,230.602 328.119,233.483 314.423 C 234.708 308.602,235.025 295.341,234.057 290.469 C 233.247 286.398,227.332 286.800,287.990 286.800 L 341.482 286.800 342.841 285.892 C 346.325 283.564,346.362 278.766,342.912 276.506 C 341.900 275.842,338.476 275.788,286.018 275.600 L 230.200 275.400 229.066 273.000 C 225.632 265.735,221.877 260.287,216.475 254.732 C 214.344 252.540,212.831 250.673,212.986 250.423 C 213.183 250.104,232.232 250.012,281.929 250.091 L 350.600 250.200 354.507 251.279 M99.083 258.814 C 106.606 261.755,108.897 262.082,123.400 262.286 C 137.830 262.488,137.240 262.355,135.535 265.021 C 119.614 289.907,123.282 326.480,143.784 347.263 C 145.663 349.168,147.200 350.923,147.200 351.163 C 147.200 351.643,88.353 351.819,87.874 351.341 C 87.732 351.198,89.287 349.340,91.331 347.211 C 114.065 323.525,115.652 284.456,94.935 258.500 C 93.583 256.806,94.035 256.840,99.083 258.814 M177.159 263.713 C 172.259 267.005,174.886 272.741,181.680 273.585 C 200.828 275.965,210.013 301.506,197.849 318.552 C 184.564 337.169,159.331 327.597,157.380 303.200 C 156.953 297.870,155.297 295.600,151.833 295.600 C 146.073 295.600,144.820 302.303,148.409 313.924 C 154.653 334.138,175.156 344.450,193.075 336.387 C 217.682 325.314,221.423 286.124,199.464 269.456 C 193.717 265.093,187.651 262.843,181.559 262.814 C 179.042 262.802,178.284 262.957,177.159 263.713 M48.200 264.967 C 35.401 268.158,25.452 279.438,22.986 293.552 C 21.500 302.056,22.627 305.547,27.072 306.209 C 30.790 306.764,32.728 304.454,33.211 298.892 C 34.085 288.827,38.983 280.928,46.731 277.089 L 50.140 275.400 54.770 275.400 C 74.934 275.400,84.090 305.253,68.643 320.631 C 64.826 324.431,59.809 326.782,55.487 326.795 C 50.262 326.812,47.584 332.216,50.972 335.906 L 52.344 337.400 56.272 337.373 C 75.531 337.241,90.766 315.236,86.616 293.547 C 82.837 273.802,65.248 260.716,48.200 264.967 M251.719 319.984 C 248.087 322.198,248.374 327.748,252.218 329.608 C 254.318 330.625,272.636 330.822,274.913 329.852 C 279.088 328.073,279.655 322.285,275.881 319.984 C 273.919 318.788,253.681 318.788,251.719 319.984 " stroke="none" fill="#000000" fill-rule="evenodd"></path><path id="path3" d="M123.324 81.000 C 123.326 82.320,123.401 82.812,123.490 82.093 C 123.579 81.374,123.577 80.294,123.486 79.693 C 123.395 79.092,123.322 79.680,123.324 81.000 M116.305 149.483 C 116.802 149.579,117.522 149.575,117.905 149.475 C 118.287 149.375,117.880 149.296,117.000 149.301 C 116.120 149.305,115.807 149.387,116.305 149.483 M152.000 150.759 C 152.000 150.965,152.175 151.193,152.389 151.267 C 155.383 152.293,165.318 167.287,168.114 175.000 C 168.673 176.540,169.255 178.115,169.407 178.500 C 169.669 179.158,171.524 179.200,200.459 179.200 C 230.325 179.200,231.278 179.223,232.782 179.991 C 238.183 182.746,237.367 190.450,231.490 192.196 C 229.758 192.710,225.215 192.800,200.965 192.800 L 172.476 192.800 172.474 199.900 C 172.470 215.737,168.355 228.678,159.488 240.740 C 157.807 243.028,158.033 243.197,160.859 241.760 C 162.018 241.171,167.092 239.459,169.000 239.013 C 174.910 237.632,176.604 237.600,243.628 237.600 L 309.526 237.600 311.415 235.500 C 313.522 233.158,316.400 229.071,316.400 228.422 C 316.400 228.129,302.927 228.000,272.180 228.000 C 223.690 228.000,226.814 228.158,224.663 225.602 C 221.870 222.283,222.996 217.363,226.960 215.562 C 228.529 214.850,230.626 214.817,275.460 214.809 L 322.320 214.800 322.914 211.900 C 324.475 204.290,324.689 199.974,323.822 193.600 C 322.993 187.502,322.593 185.728,321.016 181.134 C 318.904 174.984,319.120 173.278,322.393 170.253 C 323.594 169.143,323.944 168.584,323.633 168.273 C 323.395 168.035,323.200 167.520,323.200 167.129 C 323.200 166.738,322.750 166.124,322.200 165.763 C 321.650 165.403,321.200 164.915,321.200 164.680 C 321.200 164.444,320.795 163.795,320.300 163.238 C 319.597 162.446,319.571 162.353,320.181 162.812 C 320.957 163.395,320.957 163.392,320.181 162.341 C 319.752 161.759,319.265 161.365,319.100 161.465 C 318.935 161.565,318.800 161.463,318.800 161.238 C 318.800 160.217,317.185 159.944,315.884 160.744 C 312.616 162.752,310.221 162.287,305.561 158.740 C 301.555 155.692,297.045 153.294,292.400 151.744 L 289.000 150.609 220.500 150.497 C 178.137 150.427,152.000 150.527,152.000 150.759 M289.960 179.780 C 294.860 182.313,294.957 189.443,290.124 191.843 C 288.224 192.787,267.824 193.221,264.075 192.398 C 257.717 191.002,256.328 182.971,261.932 180.011 C 263.893 178.975,288.019 178.776,289.960 179.780 M214.400 251.029 C 214.400 251.155,215.856 252.837,217.635 254.767 C 220.333 257.692,223.069 261.226,225.906 265.447 C 226.184 265.861,226.150 265.646,225.831 264.969 C 224.933 263.064,220.752 257.588,217.834 254.495 C 216.385 252.959,215.200 251.590,215.200 251.453 C 215.200 251.315,245.215 251.156,281.900 251.100 L 348.600 250.998 281.500 250.899 C 244.595 250.844,214.400 250.903,214.400 251.029 M350.200 251.486 C 350.860 251.577,352.455 251.920,353.744 252.248 C 355.034 252.576,356.165 252.768,356.259 252.675 C 356.538 252.395,351.328 251.195,350.118 251.260 L 349.000 251.320 350.200 251.486 M359.200 253.960 C 366.733 257.238,373.645 263.082,378.168 270.000 C 380.411 273.430,381.365 274.560,380.026 272.200 C 375.362 263.982,362.095 252.703,357.225 252.814 C 356.881 252.822,357.770 253.338,359.200 253.960 M206.800 261.325 C 206.800 261.394,207.385 261.979,208.100 262.625 L 209.400 263.800 208.225 262.500 C 207.130 261.288,206.800 261.016,206.800 261.325 M228.474 270.496 L 230.600 274.793 285.667 274.796 C 315.954 274.798,341.064 274.907,341.467 275.038 C 342.077 275.235,342.099 275.203,341.600 274.844 C 341.178 274.540,324.683 274.410,285.923 274.406 L 230.845 274.400 228.997 270.700 C 227.980 268.665,226.968 266.820,226.748 266.600 C 226.528 266.380,227.305 268.133,228.474 270.496 M32.575 273.300 L 31.400 274.600 32.700 273.425 C 33.912 272.330,34.184 272.000,33.875 272.000 C 33.806 272.000,33.221 272.585,32.575 273.300 M380.800 274.353 C 380.800 274.573,380.957 274.850,381.148 274.968 C 381.340 275.086,382.092 276.625,382.819 278.387 C 383.547 280.149,384.213 281.520,384.300 281.433 C 384.520 281.213,381.579 274.434,381.149 274.169 C 380.957 274.050,380.800 274.133,380.800 274.353 M343.330 276.016 C 343.901 276.465,344.735 277.299,345.184 277.870 C 345.633 278.441,346.000 278.710,346.000 278.467 C 346.000 278.225,345.364 277.391,344.587 276.613 C 343.809 275.836,342.975 275.200,342.733 275.200 C 342.490 275.200,342.759 275.567,343.330 276.016 M384.595 282.800 C 384.714 283.350,385.195 285.240,385.664 287.000 C 386.133 288.760,386.647 291.190,386.806 292.400 C 387.065 294.368,387.100 294.432,387.144 293.000 C 387.192 291.424,385.668 284.751,384.815 282.800 L 384.377 281.800 384.595 282.800 M345.475 284.025 C 345.069 284.888,344.102 285.968,343.275 286.483 L 341.800 287.400 288.205 287.600 C 234.995 287.799,234.610 287.806,234.491 288.600 C 234.381 289.331,234.408 289.340,234.805 288.700 C 235.215 288.039,238.186 288.000,288.033 288.000 C 344.686 288.000,342.323 288.080,344.526 286.086 C 345.408 285.288,346.504 283.294,346.324 282.816 C 346.256 282.634,345.874 283.179,345.475 284.025 M234.888 290.800 C 234.878 291.570,235.010 293.100,235.182 294.200 C 235.434 295.818,235.497 295.933,235.512 294.800 C 235.522 294.030,235.390 292.500,235.218 291.400 C 234.966 289.782,234.903 289.667,234.888 290.800 M387.320 296.800 C 387.320 298.010,387.395 298.505,387.487 297.900 C 387.578 297.295,387.578 296.305,387.487 295.700 C 387.395 295.095,387.320 295.590,387.320 296.800 M235.750 301.000 C 235.751 303.420,235.816 304.358,235.896 303.085 C 235.976 301.812,235.975 299.832,235.894 298.685 C 235.814 297.538,235.749 298.580,235.750 301.000 M21.693 300.400 C 21.693 301.170,21.775 301.485,21.876 301.100 C 21.976 300.715,21.976 300.085,21.876 299.700 C 21.775 299.315,21.693 299.630,21.693 300.400 M387.701 301.000 C 387.705 301.880,387.787 302.193,387.883 301.695 C 387.979 301.198,387.975 300.478,387.875 300.095 C 387.775 299.713,387.696 300.120,387.701 301.000 M387.320 305.200 C 387.320 306.410,387.395 306.905,387.487 306.300 C 387.578 305.695,387.578 304.705,387.487 304.100 C 387.395 303.495,387.320 303.990,387.320 305.200 M235.035 308.635 C 234.883 310.316,234.841 311.774,234.942 311.876 C 235.043 311.977,235.255 310.688,235.412 309.012 C 235.569 307.336,235.611 305.877,235.505 305.771 C 235.399 305.666,235.188 306.954,235.035 308.635 M386.864 308.650 C 386.829 309.338,386.711 310.507,386.601 311.250 L 386.403 312.600 386.824 311.258 C 387.055 310.520,387.173 309.350,387.086 308.658 L 386.928 307.400 386.864 308.650 M233.867 315.867 C 233.479 317.752,233.236 319.369,233.327 319.460 C 233.418 319.551,233.815 318.089,234.210 316.210 C 234.604 314.331,234.847 312.713,234.749 312.616 C 234.652 312.519,234.255 313.981,233.867 315.867 M385.594 315.297 L 384.990 317.800 348.195 318.000 C 327.546 318.112,311.137 318.358,310.800 318.560 C 309.730 319.201,308.336 320.581,307.931 321.400 C 307.713 321.840,308.030 321.593,308.634 320.852 C 310.728 318.283,308.828 318.400,348.538 318.400 C 376.996 318.400,384.784 318.293,385.089 317.900 C 385.599 317.241,386.527 313.781,386.343 313.228 C 386.263 312.989,385.926 313.921,385.594 315.297 M258.524 318.299 C 261.562 318.367,266.422 318.367,269.324 318.299 C 272.226 318.231,269.740 318.175,263.800 318.175 C 257.860 318.175,255.486 318.231,258.524 318.299 M250.916 319.186 C 246.977 321.588,247.127 327.531,251.196 330.300 C 252.490 331.181,252.759 331.200,263.800 331.200 C 276.235 331.200,276.710 331.108,278.308 328.400 L 278.898 327.400 278.136 328.315 C 276.080 330.784,276.017 330.794,263.759 330.797 C 252.757 330.800,252.490 330.781,251.200 329.900 C 247.348 327.271,247.530 322.031,251.569 319.310 C 253.218 318.198,252.698 318.099,250.916 319.186 M276.031 319.310 C 278.348 320.871,279.298 322.668,279.101 325.117 C 279.006 326.305,279.075 327.008,279.260 326.717 C 280.700 324.446,277.644 318.422,275.041 318.403 C 274.843 318.401,275.289 318.809,276.031 319.310 M232.440 321.440 C 232.210 322.273,232.094 323.027,232.182 323.115 C 232.270 323.203,232.530 322.593,232.760 321.760 C 232.990 320.927,233.106 320.173,233.018 320.085 C 232.930 319.997,232.670 320.607,232.440 321.440 M230.830 326.123 C 227.641 334.450,220.575 345.041,215.300 349.397 C 214.585 349.988,214.000 350.635,214.000 350.836 C 214.000 351.053,231.641 351.200,257.613 351.200 C 293.771 351.200,301.451 351.294,302.546 351.752 C 304.246 352.462,305.510 354.089,306.061 356.275 C 306.301 357.231,306.639 358.100,306.810 358.206 C 307.336 358.531,306.035 354.662,305.270 353.625 C 303.158 350.762,307.440 351.012,258.536 350.895 L 214.731 350.790 217.540 347.781 C 222.322 342.661,225.867 337.544,228.889 331.400 C 230.579 327.964,232.161 324.028,231.942 323.808 C 231.852 323.718,231.352 324.760,230.830 326.123 M307.236 326.120 C 307.175 327.347,308.341 329.131,309.897 330.189 L 311.386 331.200 344.669 331.200 C 364.533 331.200,378.045 331.349,378.181 331.569 C 379.334 333.435,367.689 343.864,360.655 347.265 C 358.865 348.130,357.850 348.716,358.400 348.567 C 364.973 346.783,380.995 332.834,378.375 331.176 C 378.042 330.965,363.821 330.810,344.554 330.806 L 311.308 330.800 310.154 329.909 C 308.600 328.710,308.078 328.022,307.641 326.600 C 307.431 325.917,307.257 325.710,307.236 326.120 M82.175 339.700 L 81.000 341.000 82.300 339.825 C 83.512 338.730,83.784 338.400,83.475 338.400 C 83.406 338.400,82.821 338.985,82.175 339.700 M353.800 349.613 C 352.260 350.010,351.360 350.347,351.800 350.363 C 352.702 350.394,356.762 349.371,357.108 349.025 C 357.420 348.713,357.009 348.787,353.800 349.613 M335.800 350.800 L 323.400 351.017 335.400 351.079 C 342.000 351.113,348.210 350.997,349.200 350.820 C 350.729 350.548,350.789 350.506,349.600 350.541 C 348.830 350.564,342.620 350.680,335.800 350.800 M321.277 352.010 C 320.005 352.785,318.395 355.501,318.437 356.800 C 318.448 357.130,318.716 356.692,319.033 355.827 C 319.705 353.990,320.536 352.972,322.200 351.944 C 322.860 351.537,323.220 351.203,323.000 351.203 C 322.780 351.203,322.005 351.566,321.277 352.010 " stroke="none" fill="#a35418" fill-rule="evenodd"></path><path id="path4" d="M132.682 50.175 C 132.044 50.813,128.393 57.731,128.413 58.264 C 128.420 58.449,129.285 56.950,130.336 54.933 C 132.763 50.277,133.033 49.958,134.346 50.210 C 135.241 50.382,135.279 50.355,134.600 50.034 C 133.491 49.510,133.336 49.522,132.682 50.175 M138.104 51.634 C 139.217 52.282,141.600 53.230,141.600 53.024 C 141.600 52.820,138.052 51.193,137.649 51.212 C 137.512 51.219,137.717 51.409,138.104 51.634 M144.600 54.679 C 145.156 55.243,150.800 58.823,150.800 58.611 C 150.800 58.402,148.001 56.497,145.800 55.209 C 144.920 54.694,144.380 54.455,144.600 54.679 M151.200 58.910 C 151.200 59.008,152.559 60.226,154.219 61.616 C 157.614 64.458,161.262 68.576,163.685 72.300 C 165.446 75.007,166.237 75.745,164.757 73.300 C 161.977 68.707,151.200 57.269,151.200 58.910 M126.645 62.650 C 126.290 63.691,126.013 64.735,126.029 64.971 C 126.045 65.207,126.405 64.424,126.828 63.232 C 127.251 62.040,127.528 60.995,127.444 60.910 C 127.359 60.826,127.000 61.608,126.645 62.650 M137.588 63.700 C 135.120 64.947,133.984 66.768,134.059 69.359 L 134.118 71.400 134.359 69.182 C 134.741 65.665,136.189 64.107,139.887 63.237 C 141.050 62.963,141.165 62.871,140.385 62.840 C 139.826 62.818,138.568 63.205,137.588 63.700 M125.429 66.629 C 125.281 67.215,125.238 67.772,125.332 67.866 C 125.427 67.960,125.624 67.558,125.771 66.971 C 125.919 66.385,125.962 65.828,125.868 65.734 C 125.773 65.640,125.576 66.042,125.429 66.629 M146.240 68.137 C 146.598 69.186,146.961 69.973,147.047 69.887 C 147.255 69.678,146.385 67.104,145.941 66.615 C 145.748 66.404,145.883 67.089,146.240 68.137 M124.600 70.000 C 124.446 70.910,124.404 71.738,124.507 71.840 C 124.610 71.943,124.813 71.277,124.960 70.360 C 125.107 69.443,125.148 68.615,125.053 68.520 C 124.958 68.424,124.754 69.090,124.600 70.000 M147.429 71.200 C 147.576 71.750,147.864 72.470,148.067 72.800 C 148.325 73.217,148.357 73.095,148.171 72.400 C 148.024 71.850,147.736 71.130,147.533 70.800 C 147.275 70.383,147.243 70.505,147.429 71.200 M134.499 72.100 C 134.600 72.375,134.998 73.557,135.382 74.726 C 135.767 75.895,136.152 76.781,136.238 76.695 C 136.441 76.493,134.792 71.600,134.520 71.600 C 134.407 71.600,134.397 71.825,134.499 72.100 M123.857 74.300 C 123.526 76.298,123.574 86.192,123.923 88.161 C 124.075 89.020,124.200 85.915,124.200 81.261 C 124.200 76.608,124.179 72.800,124.152 72.800 C 124.126 72.800,123.993 73.475,123.857 74.300 M149.029 75.600 C 149.176 76.150,149.464 76.870,149.667 77.200 C 149.925 77.617,149.957 77.495,149.771 76.800 C 149.624 76.250,149.336 75.530,149.133 75.200 C 148.875 74.783,148.843 74.905,149.029 75.600 M166.682 77.389 C 167.273 78.593,167.823 79.511,167.905 79.429 C 168.084 79.249,166.067 75.200,165.798 75.200 C 165.694 75.200,166.092 76.185,166.682 77.389 M136.654 78.000 C 136.789 78.550,137.145 79.540,137.445 80.200 C 137.884 81.164,137.943 81.203,137.746 80.400 C 137.611 79.850,137.255 78.860,136.955 78.200 C 136.516 77.236,136.457 77.197,136.654 78.000 M150.629 80.000 C 150.776 80.550,151.064 81.270,151.267 81.600 C 151.525 82.017,151.557 81.895,151.371 81.200 C 151.224 80.650,150.936 79.930,150.733 79.600 C 150.475 79.183,150.443 79.305,150.629 80.000 M138.254 82.400 C 138.389 82.950,138.745 83.940,139.045 84.600 C 139.484 85.564,139.543 85.603,139.346 84.800 C 139.211 84.250,138.855 83.260,138.555 82.600 C 138.116 81.636,138.057 81.597,138.254 82.400 M168.863 82.200 C 168.862 82.420,169.103 83.230,169.400 84.000 C 169.697 84.770,169.945 85.130,169.952 84.800 C 169.958 84.470,169.717 83.660,169.414 83.000 C 169.112 82.340,168.864 81.980,168.863 82.200 M152.229 84.400 C 152.376 84.950,152.664 85.670,152.867 86.000 C 153.125 86.417,153.157 86.295,152.971 85.600 C 152.824 85.050,152.536 84.330,152.333 84.000 C 152.075 83.583,152.043 83.705,152.229 84.400 M139.829 86.800 C 139.976 87.350,140.264 88.070,140.467 88.400 C 140.725 88.817,140.757 88.695,140.571 88.000 C 140.424 87.450,140.136 86.730,139.933 86.400 C 139.675 85.983,139.643 86.105,139.829 86.800 M170.134 88.800 C 170.134 90.450,170.205 91.125,170.291 90.300 C 170.378 89.475,170.378 88.125,170.291 87.300 C 170.205 86.475,170.134 87.150,170.134 88.800 M141.429 91.200 C 141.576 91.750,141.864 92.470,142.067 92.800 C 142.325 93.217,142.357 93.095,142.171 92.400 C 142.024 91.850,141.736 91.130,141.533 90.800 C 141.275 90.383,141.243 90.505,141.429 91.200 M168.880 95.480 C 168.288 97.409,168.575 97.695,169.200 95.800 C 169.464 95.001,169.602 94.269,169.507 94.174 C 169.412 94.078,169.130 94.666,168.880 95.480 M143.029 95.600 C 143.176 96.150,143.464 96.870,143.667 97.200 C 143.925 97.617,143.957 97.495,143.771 96.800 C 143.624 96.250,143.336 95.530,143.133 95.200 C 142.875 94.783,142.843 94.905,143.029 95.600 M157.029 97.600 C 157.176 98.150,157.464 98.870,157.667 99.200 C 157.925 99.617,157.957 99.495,157.771 98.800 C 157.624 98.250,157.336 97.530,157.133 97.200 C 156.875 96.783,156.843 96.905,157.029 97.600 M126.800 99.062 C 126.800 100.634,131.870 106.521,134.200 107.655 C 134.640 107.869,134.460 107.632,133.800 107.128 C 131.330 105.242,129.578 103.330,128.210 101.024 C 127.434 99.716,126.800 98.834,126.800 99.062 M144.499 99.700 C 144.600 99.975,144.998 101.157,145.382 102.326 C 145.767 103.495,146.152 104.381,146.238 104.295 C 146.441 104.093,144.792 99.200,144.520 99.200 C 144.407 99.200,144.397 99.425,144.499 99.700 M166.600 100.400 C 166.259 101.060,166.069 101.600,166.179 101.600 C 166.289 101.600,166.659 101.060,167.000 100.400 C 167.341 99.740,167.531 99.200,167.421 99.200 C 167.311 99.200,166.941 99.740,166.600 100.400 M158.254 100.800 C 158.389 101.350,158.745 102.340,159.045 103.000 C 159.484 103.964,159.543 104.003,159.346 103.200 C 159.211 102.650,158.855 101.660,158.555 101.000 C 158.116 100.036,158.057 99.997,158.254 100.800 M163.623 104.844 C 161.507 107.619,160.400 107.967,160.400 105.857 C 160.400 105.642,160.303 105.563,160.185 105.682 C 159.910 105.957,160.830 108.000,161.230 108.000 C 161.507 108.000,165.090 103.647,165.757 102.500 C 166.447 101.313,165.641 102.198,163.623 104.844 M147.029 106.800 C 147.176 107.350,147.464 108.070,147.667 108.400 C 147.925 108.817,147.957 108.695,147.771 108.000 C 147.624 107.450,147.336 106.730,147.133 106.400 C 146.875 105.983,146.843 106.105,147.029 106.800 M148.608 111.100 C 148.825 111.895,148.699 112.007,147.527 112.060 C 146.247 112.118,146.241 112.126,147.349 112.291 C 148.810 112.509,149.441 111.930,148.822 110.939 C 148.407 110.272,148.386 110.288,148.608 111.100 M142.400 111.182 C 142.730 111.405,143.345 111.591,143.767 111.594 C 144.790 111.602,144.471 111.373,143.000 111.044 C 142.124 110.848,141.962 110.885,142.400 111.182 M112.705 149.883 C 113.202 149.979,113.922 149.975,114.305 149.875 C 114.687 149.775,114.280 149.696,113.400 149.701 C 112.520 149.705,112.207 149.787,112.705 149.883 M119.905 149.883 C 120.402 149.979,121.122 149.975,121.505 149.875 C 121.887 149.775,121.480 149.696,120.600 149.701 C 119.720 149.705,119.407 149.787,119.905 149.883 M100.300 153.426 C 99.255 153.970,98.400 154.505,98.400 154.614 C 98.400 154.793,102.360 152.923,102.767 152.552 C 103.262 152.101,101.961 152.562,100.300 153.426 M132.000 153.000 C 132.550 153.314,133.180 153.572,133.400 153.572 C 133.620 153.572,133.350 153.314,132.800 153.000 C 132.250 152.686,131.620 152.428,131.400 152.428 C 131.180 152.428,131.450 152.686,132.000 153.000 M94.600 157.035 L 93.400 158.066 94.700 157.206 C 95.415 156.733,96.000 156.268,96.000 156.173 C 96.000 155.873,95.831 155.978,94.600 157.035 M139.200 156.906 C 139.200 156.994,139.965 157.674,140.900 158.417 C 141.835 159.160,142.346 159.452,142.036 159.065 C 141.451 158.337,139.200 156.623,139.200 156.906 M91.775 159.300 L 90.600 160.600 91.900 159.425 C 93.112 158.330,93.384 158.000,93.075 158.000 C 93.006 158.000,92.421 158.585,91.775 159.300 M144.600 161.600 C 145.459 162.480,146.252 163.200,146.362 163.200 C 146.472 163.200,145.859 162.480,145.000 161.600 C 144.141 160.720,143.348 160.000,143.238 160.000 C 143.128 160.000,143.741 160.720,144.600 161.600 M87.178 163.900 L 85.800 165.400 87.300 164.022 C 88.696 162.738,88.984 162.400,88.678 162.400 C 88.612 162.400,87.937 163.075,87.178 163.900 M112.900 162.676 C 113.285 162.776,113.915 162.776,114.300 162.676 C 114.685 162.575,114.370 162.493,113.600 162.493 C 112.830 162.493,112.515 162.575,112.900 162.676 M119.700 162.676 C 120.085 162.776,120.715 162.776,121.100 162.676 C 121.485 162.575,121.170 162.493,120.400 162.493 C 119.630 162.493,119.315 162.575,119.700 162.676 M108.200 163.600 C 107.696 163.817,107.622 163.944,108.000 163.944 C 108.330 163.944,108.960 163.789,109.400 163.600 C 109.904 163.383,109.978 163.256,109.600 163.256 C 109.270 163.256,108.640 163.411,108.200 163.600 M128.800 165.000 C 129.350 165.314,129.980 165.572,130.200 165.572 C 130.420 165.572,130.150 165.314,129.600 165.000 C 129.050 164.686,128.420 164.428,128.200 164.428 C 127.980 164.428,128.250 164.686,128.800 165.000 M103.500 165.429 C 101.949 166.270,102.125 166.561,103.700 165.759 C 105.208 164.993,105.475 164.794,104.967 164.816 C 104.765 164.825,104.105 165.101,103.500 165.429 M85.144 166.300 C 83.993 167.689,83.506 168.400,83.704 168.400 C 83.814 168.400,84.386 167.770,84.973 167.000 C 86.063 165.571,86.195 165.032,85.144 166.300 M130.800 165.779 C 130.800 165.889,131.340 166.259,132.000 166.600 C 132.660 166.941,133.200 167.131,133.200 167.021 C 133.200 166.911,132.660 166.541,132.000 166.200 C 131.340 165.859,130.800 165.669,130.800 165.779 M149.854 168.000 C 151.662 170.674,152.385 171.477,151.357 169.670 C 150.941 168.938,150.097 167.768,149.483 167.070 C 148.676 166.152,148.779 166.410,149.854 168.000 M82.953 169.300 C 81.576 171.636,81.486 171.835,82.187 171.000 C 83.000 170.032,83.700 168.800,83.438 168.800 C 83.333 168.800,83.115 169.025,82.953 169.300 M138.800 171.800 C 140.217 173.230,141.467 174.400,141.577 174.400 C 141.687 174.400,140.617 173.230,139.200 171.800 C 137.783 170.370,136.533 169.200,136.423 169.200 C 136.313 169.200,137.383 170.370,138.800 171.800 M94.585 172.100 L 92.600 174.200 94.700 172.215 C 96.651 170.371,96.983 170.000,96.685 170.000 C 96.622 170.000,95.677 170.945,94.585 172.100 M152.600 172.400 C 152.941 173.060,153.311 173.600,153.421 173.600 C 153.531 173.600,153.341 173.060,153.000 172.400 C 152.659 171.740,152.289 171.200,152.179 171.200 C 152.069 171.200,152.259 171.740,152.600 172.400 M79.980 174.439 C 79.520 175.340,79.213 176.146,79.297 176.230 C 79.381 176.314,79.841 175.576,80.319 174.591 C 81.409 172.347,81.115 172.215,79.980 174.439 M91.944 175.100 C 90.793 176.489,90.306 177.200,90.504 177.200 C 90.614 177.200,91.186 176.570,91.773 175.800 C 92.863 174.371,92.995 173.832,91.944 175.100 M115.900 174.689 C 116.615 174.778,117.785 174.778,118.500 174.689 C 119.215 174.601,118.630 174.528,117.200 174.528 C 115.770 174.528,115.185 174.601,115.900 174.689 M142.604 176.200 C 144.207 178.426,144.650 178.839,143.757 177.273 C 143.341 176.543,142.652 175.643,142.226 175.273 C 141.776 174.882,141.934 175.269,142.604 176.200 M124.000 176.200 C 124.550 176.514,125.180 176.772,125.400 176.772 C 125.620 176.772,125.350 176.514,124.800 176.200 C 124.250 175.886,123.620 175.628,123.400 175.628 C 123.180 175.628,123.450 175.886,124.000 176.200 M154.428 175.800 C 154.428 176.020,154.686 176.650,155.000 177.200 C 155.314 177.750,155.572 178.020,155.572 177.800 C 155.572 177.580,155.314 176.950,155.000 176.400 C 154.686 175.850,154.428 175.580,154.428 175.800 M130.584 180.800 C 133.744 184.279,133.861 184.390,132.897 183.000 C 132.440 182.340,131.200 180.990,130.144 180.000 C 128.436 178.400,128.485 178.489,130.584 180.800 M88.180 180.840 C 87.611 181.962,87.213 182.947,87.295 183.029 C 87.377 183.111,87.927 182.193,88.518 180.989 C 89.108 179.785,89.506 178.800,89.402 178.800 C 89.298 178.800,88.748 179.718,88.180 180.840 M102.832 181.041 C 101.706 182.273,100.598 183.668,100.370 184.141 C 100.139 184.620,100.361 184.469,100.871 183.800 C 101.375 183.140,102.579 181.745,103.548 180.700 C 104.517 179.655,105.213 178.800,105.095 178.800 C 104.977 178.800,103.959 179.808,102.832 181.041 M146.814 183.254 C 146.806 183.394,147.063 184.114,147.384 184.854 C 147.706 185.594,147.969 185.930,147.970 185.600 C 147.972 185.024,146.843 182.734,146.814 183.254 M98.780 186.839 C 98.320 187.740,98.013 188.546,98.097 188.630 C 98.181 188.714,98.641 187.976,99.119 186.991 C 100.209 184.747,99.915 184.615,98.780 186.839 M159.293 193.200 C 159.293 193.970,159.375 194.285,159.476 193.900 C 159.576 193.515,159.576 192.885,159.476 192.500 C 159.375 192.115,159.293 192.430,159.293 193.200 M84.093 193.600 C 84.093 194.370,84.175 194.685,84.276 194.300 C 84.376 193.915,84.376 193.285,84.276 192.900 C 84.175 192.515,84.093 192.830,84.093 193.600 M96.093 196.000 C 96.093 196.770,96.175 197.085,96.276 196.700 C 96.376 196.315,96.376 195.685,96.276 195.300 C 96.175 194.915,96.093 195.230,96.093 196.000 M150.120 196.800 C 150.120 198.010,150.195 198.505,150.287 197.900 C 150.378 197.295,150.378 196.305,150.287 195.700 C 150.195 195.095,150.120 195.590,150.120 196.800 M159.754 200.000 C 159.754 202.750,159.818 203.875,159.896 202.500 C 159.974 201.125,159.974 198.875,159.896 197.500 C 159.818 196.125,159.754 197.250,159.754 200.000 M83.751 200.000 C 83.751 202.530,83.816 203.565,83.896 202.300 C 83.975 201.035,83.975 198.965,83.896 197.700 C 83.816 196.435,83.751 197.470,83.751 200.000 M138.124 199.000 C 138.126 200.320,138.201 200.812,138.290 200.093 C 138.379 199.374,138.377 198.294,138.286 197.693 C 138.195 197.092,138.122 197.680,138.124 199.000 M74.109 200.000 C 74.109 200.990,74.187 201.395,74.282 200.900 C 74.378 200.405,74.378 199.595,74.282 199.100 C 74.187 198.605,74.109 199.010,74.109 200.000 M95.709 200.000 C 95.709 200.990,95.787 201.395,95.882 200.900 C 95.978 200.405,95.978 199.595,95.882 199.100 C 95.787 198.605,95.709 199.010,95.709 200.000 M138.400 201.889 C 138.400 202.121,138.771 202.736,139.224 203.256 L 140.047 204.200 139.345 203.000 C 138.420 201.421,138.400 201.397,138.400 201.889 M96.093 204.000 C 96.093 204.770,96.175 205.085,96.276 204.700 C 96.376 204.315,96.376 203.685,96.276 203.300 C 96.175 202.915,96.093 203.230,96.093 204.000 M84.093 206.400 C 84.093 207.170,84.175 207.485,84.276 207.100 C 84.376 206.715,84.376 206.085,84.276 205.700 C 84.175 205.315,84.093 205.630,84.093 206.400 M159.293 206.800 C 159.293 207.570,159.375 207.885,159.476 207.500 C 159.576 207.115,159.576 206.485,159.476 206.100 C 159.375 205.715,159.293 206.030,159.293 206.800 M74.893 209.200 C 74.893 209.970,74.975 210.285,75.076 209.900 C 75.176 209.515,75.176 208.885,75.076 208.500 C 74.975 208.115,74.893 208.430,74.893 209.200 M98.000 211.349 C 98.000 211.781,99.589 214.800,99.816 214.800 C 99.926 214.800,99.630 214.035,99.159 213.100 C 98.232 211.261,98.000 210.911,98.000 211.349 M100.364 215.933 C 100.580 216.336,101.071 216.921,101.455 217.233 C 101.887 217.584,101.790 217.304,101.201 216.500 C 100.151 215.065,99.757 214.798,100.364 215.933 M87.200 216.949 C 87.200 217.381,88.789 220.400,89.016 220.400 C 89.126 220.400,88.830 219.635,88.359 218.700 C 87.432 216.861,87.200 216.511,87.200 216.949 M104.093 220.102 C 105.175 221.148,106.452 222.193,106.930 222.424 C 107.438 222.669,107.301 222.462,106.600 221.926 C 105.940 221.421,104.663 220.376,103.763 219.604 C 102.607 218.613,102.704 218.759,104.093 220.102 M89.877 222.031 C 90.275 222.708,90.856 223.473,91.168 223.731 C 91.480 223.989,91.232 223.435,90.615 222.500 C 89.320 220.537,88.809 220.212,89.877 222.031 M154.865 223.017 C 154.195 224.488,154.323 224.802,155.047 223.465 C 155.386 222.840,155.588 222.254,155.496 222.163 C 155.405 222.071,155.121 222.456,154.865 223.017 M79.200 223.753 C 79.200 224.182,80.390 226.400,80.621 226.400 C 80.731 226.400,80.523 225.815,80.159 225.100 C 79.417 223.640,79.200 223.336,79.200 223.753 M115.905 225.483 C 116.402 225.579,117.122 225.575,117.505 225.475 C 117.887 225.375,117.480 225.296,116.600 225.301 C 115.720 225.305,115.407 225.387,115.905 225.483 M95.419 228.641 C 96.569 229.763,98.115 231.083,98.855 231.575 C 99.964 232.312,99.920 232.235,98.600 231.135 C 97.720 230.401,96.174 229.081,95.164 228.200 C 93.567 226.808,93.600 226.865,95.419 228.641 M121.245 227.381 C 121.600 227.831,122.090 228.560,122.333 229.000 C 122.577 229.440,122.781 229.578,122.788 229.306 C 122.795 229.035,122.305 228.306,121.700 227.687 C 121.095 227.068,120.890 226.930,121.245 227.381 M152.600 227.600 C 152.259 228.260,152.069 228.800,152.179 228.800 C 152.289 228.800,152.659 228.260,153.000 227.600 C 153.341 226.940,153.531 226.400,153.421 226.400 C 153.311 226.400,152.941 226.940,152.600 227.600 M81.949 229.000 C 82.165 229.440,82.634 230.160,82.993 230.600 L 83.644 231.400 83.251 230.600 C 83.035 230.160,82.566 229.440,82.207 229.000 L 81.556 228.200 81.949 229.000 M122.909 231.600 C 122.909 232.590,122.987 232.995,123.082 232.500 C 123.178 232.005,123.178 231.195,123.082 230.700 C 122.987 230.205,122.909 230.610,122.909 231.600 M87.583 236.500 C 88.564 237.545,89.419 238.400,89.483 238.400 C 89.784 238.400,89.466 238.041,87.700 236.383 L 85.800 234.600 87.583 236.500 M113.505 237.483 C 114.002 237.579,114.722 237.575,115.105 237.475 C 115.487 237.375,115.080 237.296,114.200 237.301 C 113.320 237.305,113.007 237.387,113.505 237.483 M144.575 238.500 L 143.400 239.800 144.700 238.625 C 145.912 237.530,146.184 237.200,145.875 237.200 C 145.806 237.200,145.221 237.785,144.575 238.500 M91.332 240.284 C 91.954 240.958,93.304 242.085,94.332 242.788 C 96.206 244.071,95.909 243.782,92.200 240.713 C 90.728 239.495,90.499 239.382,91.332 240.284 M141.775 240.900 L 140.600 242.200 141.900 241.025 C 143.112 239.930,143.384 239.600,143.075 239.600 C 143.006 239.600,142.421 240.185,141.775 240.900 M133.200 246.400 C 131.990 247.039,131.141 247.571,131.313 247.581 C 131.738 247.607,135.600 245.636,135.600 245.393 C 135.600 245.126,135.655 245.103,133.200 246.400 M99.200 245.797 C 99.200 246.068,102.449 247.684,102.630 247.503 C 102.714 247.419,101.976 246.959,100.991 246.481 C 100.006 246.002,99.200 245.694,99.200 245.797 M113.100 250.282 C 113.595 250.378,114.405 250.378,114.900 250.282 C 115.395 250.187,114.990 250.109,114.000 250.109 C 113.010 250.109,112.605 250.187,113.100 250.282 M119.100 250.282 C 119.595 250.378,120.405 250.378,120.900 250.282 C 121.395 250.187,120.990 250.109,120.000 250.109 C 119.010 250.109,118.605 250.187,119.100 250.282 M52.900 250.694 C 53.945 250.776,55.655 250.776,56.700 250.694 C 57.745 250.612,56.890 250.544,54.800 250.544 C 52.710 250.544,51.855 250.612,52.900 250.694 M178.512 250.695 C 179.564 250.777,181.184 250.776,182.112 250.692 C 183.040 250.608,182.180 250.541,180.200 250.542 C 178.220 250.543,177.460 250.612,178.512 250.695 M215.200 251.444 C 215.200 251.586,216.361 252.934,217.781 254.439 C 222.451 259.390,226.680 265.651,229.709 272.100 L 230.790 274.400 285.799 274.400 L 340.809 274.400 342.611 275.247 C 347.689 277.634,347.950 284.435,343.065 287.108 C 341.889 287.751,338.044 287.814,288.400 288.000 L 235.000 288.200 235.065 289.200 C 235.100 289.750,235.360 292.665,235.641 295.679 C 237.384 314.317,230.624 333.771,217.535 347.787 L 214.721 350.800 257.973 350.800 C 293.599 350.800,301.456 350.896,302.532 351.346 C 304.365 352.112,305.831 354.015,306.585 356.607 L 307.229 358.823 312.497 358.712 L 317.766 358.600 318.620 356.116 C 320.400 350.943,320.028 351.053,336.800 350.753 C 354.226 350.442,358.264 349.525,366.322 344.053 C 370.898 340.945,378.821 332.604,378.181 331.569 C 378.045 331.349,364.533 331.200,344.669 331.200 L 311.386 331.200 309.897 330.189 C 306.087 327.600,306.205 321.945,310.129 319.037 C 311.251 318.206,311.501 318.199,348.100 318.000 L 384.943 317.800 385.281 316.600 C 393.063 288.996,378.899 259.332,354.600 252.345 L 351.400 251.425 283.300 251.305 C 245.845 251.238,215.200 251.301,215.200 251.444 M28.598 253.937 C 29.034 254.452,29.753 255.059,30.196 255.286 C 31.045 255.721,30.921 255.587,29.003 253.994 C 27.848 253.035,27.834 253.033,28.598 253.937 M37.408 254.630 C 35.872 255.383,34.882 255.991,35.208 255.981 C 35.534 255.970,36.970 255.349,38.400 254.600 C 41.778 252.831,41.027 252.854,37.408 254.630 M69.633 253.751 C 70.042 254.121,73.200 255.595,73.200 255.416 C 73.200 255.189,70.181 253.600,69.749 253.600 C 69.594 253.600,69.542 253.668,69.633 253.751 M75.600 256.946 C 75.600 257.056,76.140 257.530,76.800 258.000 C 77.460 258.470,78.000 258.764,78.000 258.654 C 78.000 258.544,77.460 258.070,76.800 257.600 C 76.140 257.130,75.600 256.836,75.600 256.946 M205.600 260.600 C 206.346 261.370,207.047 262.000,207.157 262.000 C 207.267 262.000,206.746 261.370,206.000 260.600 C 205.254 259.830,204.553 259.200,204.443 259.200 C 204.333 259.200,204.854 259.830,205.600 260.600 M152.374 262.700 C 150.083 265.075,147.227 268.384,148.836 266.800 C 150.638 265.026,155.310 260.000,155.157 260.000 C 155.059 260.000,153.806 261.215,152.374 262.700 M82.000 262.200 C 82.746 262.970,83.447 263.600,83.557 263.600 C 83.667 263.600,83.146 262.970,82.400 262.200 C 81.654 261.430,80.953 260.800,80.843 260.800 C 80.733 260.800,81.254 261.430,82.000 262.200 M182.705 262.283 C 183.202 262.379,183.922 262.375,184.305 262.275 C 184.687 262.175,184.280 262.096,183.400 262.101 C 182.520 262.105,182.207 262.187,182.705 262.283 M176.400 263.236 C 175.736 263.779,175.669 263.915,176.200 263.640 C 177.505 262.966,178.228 262.412,177.800 262.415 C 177.580 262.417,176.950 262.786,176.400 263.236 M209.400 264.400 C 210.259 265.280,211.052 266.000,211.162 266.000 C 211.272 266.000,210.659 265.280,209.800 264.400 C 208.941 263.520,208.148 262.800,208.038 262.800 C 207.928 262.800,208.541 263.520,209.400 264.400 M50.900 263.876 C 51.285 263.976,51.915 263.976,52.300 263.876 C 52.685 263.775,52.370 263.693,51.600 263.693 C 50.830 263.693,50.515 263.775,50.900 263.876 M57.300 263.876 C 57.685 263.976,58.315 263.976,58.700 263.876 C 59.085 263.775,58.770 263.693,58.000 263.693 C 57.230 263.693,56.915 263.775,57.300 263.876 M83.600 264.125 C 83.600 264.194,84.185 264.779,84.900 265.425 L 86.200 266.600 85.025 265.300 C 83.930 264.088,83.600 263.816,83.600 264.125 M192.433 264.551 C 192.842 264.921,196.000 266.395,196.000 266.216 C 196.000 265.989,192.981 264.400,192.549 264.400 C 192.394 264.400,192.342 264.468,192.433 264.551 M196.400 266.524 C 196.400 266.617,197.165 267.198,198.100 267.815 C 199.035 268.432,199.589 268.680,199.331 268.368 C 198.834 267.767,196.400 266.236,196.400 266.524 M86.975 268.132 C 87.591 268.939,88.176 269.600,88.275 269.600 C 88.553 269.600,86.821 267.260,86.309 266.944 C 86.059 266.789,86.359 267.324,86.975 268.132 M174.093 268.000 C 174.093 268.770,174.175 269.085,174.276 268.700 C 174.376 268.315,174.376 267.685,174.276 267.300 C 174.175 266.915,174.093 267.230,174.093 268.000 M37.893 268.614 C 37.072 269.172,36.400 269.715,36.400 269.820 C 36.400 269.925,37.120 269.535,38.000 268.953 C 39.397 268.028,39.870 267.600,39.493 267.600 C 39.434 267.600,38.714 268.056,37.893 268.614 M70.000 267.724 C 70.000 267.817,70.765 268.398,71.700 269.015 C 72.635 269.632,73.189 269.880,72.931 269.568 C 72.434 268.967,70.000 267.436,70.000 267.724 M200.000 268.910 C 200.000 268.971,201.395 270.366,203.100 272.010 L 206.200 275.000 203.210 271.900 C 200.433 269.021,200.000 268.617,200.000 268.910 M213.949 270.200 C 214.165 270.640,214.634 271.360,214.993 271.800 L 215.644 272.600 215.251 271.800 C 215.035 271.360,214.566 270.640,214.207 270.200 L 213.556 269.400 213.949 270.200 M73.600 270.125 C 73.600 270.194,74.185 270.779,74.900 271.425 L 76.200 272.600 75.025 271.300 C 73.930 270.088,73.600 269.816,73.600 270.125 M177.376 273.378 C 177.804 273.720,178.434 273.986,178.776 273.968 C 179.315 273.941,179.318 273.907,178.800 273.714 C 178.470 273.592,177.840 273.326,177.400 273.124 C 176.613 272.762,176.612 272.766,177.376 273.378 M216.883 275.387 C 217.585 276.810,218.225 277.908,218.306 277.828 C 218.485 277.649,216.066 272.800,215.798 272.800 C 215.693 272.800,216.182 273.964,216.883 275.387 M17.780 275.240 C 17.211 276.362,16.813 277.347,16.895 277.429 C 16.977 277.511,17.527 276.593,18.118 275.389 C 18.708 274.185,19.106 273.200,19.002 273.200 C 18.898 273.200,18.348 274.118,17.780 275.240 M180.300 274.282 C 180.795 274.378,181.605 274.378,182.100 274.282 C 182.595 274.187,182.190 274.109,181.200 274.109 C 180.210 274.109,179.805 274.187,180.300 274.282 M30.551 275.300 C 29.370 276.648,28.680 277.600,28.884 277.600 C 28.984 277.600,29.645 276.880,30.352 276.000 C 31.725 274.292,31.864 273.801,30.551 275.300 M184.400 274.800 C 185.768 275.238,186.819 275.238,185.800 274.800 C 185.360 274.611,184.640 274.462,184.200 274.468 C 183.557 274.477,183.596 274.543,184.400 274.800 M53.500 275.889 C 54.215 275.978,55.385 275.978,56.100 275.889 C 56.815 275.801,56.230 275.728,54.800 275.728 C 53.370 275.728,52.785 275.801,53.500 275.889 M49.400 276.400 C 48.896 276.617,48.822 276.744,49.200 276.744 C 49.530 276.744,50.160 276.589,50.600 276.400 C 51.104 276.183,51.178 276.056,50.800 276.056 C 50.470 276.056,49.840 276.211,49.400 276.400 M16.065 279.017 C 15.395 280.488,15.523 280.802,16.247 279.465 C 16.586 278.840,16.788 278.254,16.696 278.163 C 16.605 278.071,16.321 278.456,16.065 279.017 M209.400 280.400 C 209.741 281.060,210.111 281.600,210.221 281.600 C 210.331 281.600,210.141 281.060,209.800 280.400 C 209.459 279.740,209.089 279.200,208.979 279.200 C 208.869 279.200,209.059 279.740,209.400 280.400 M25.780 282.440 C 25.211 283.562,24.813 284.547,24.895 284.629 C 24.977 284.711,25.527 283.793,26.118 282.589 C 26.708 281.385,27.106 280.400,27.002 280.400 C 26.898 280.400,26.348 281.318,25.780 282.440 M83.281 282.191 C 83.759 283.176,84.219 283.914,84.303 283.830 C 84.484 283.649,82.868 280.400,82.597 280.400 C 82.494 280.400,82.802 281.206,83.281 282.191 M69.342 283.000 C 70.342 284.320,71.725 286.390,72.416 287.600 C 73.106 288.810,73.556 289.440,73.416 289.000 C 72.973 287.609,70.805 284.267,69.134 282.400 C 67.572 280.655,67.579 280.674,69.342 283.000 M210.428 282.200 C 210.428 282.420,210.686 283.050,211.000 283.600 C 211.314 284.150,211.572 284.420,211.572 284.200 C 211.572 283.980,211.314 283.350,211.000 282.800 C 210.686 282.250,210.428 281.980,210.428 282.200 M220.056 282.800 C 220.056 283.130,220.211 283.760,220.400 284.200 C 220.617 284.704,220.744 284.778,220.744 284.400 C 220.744 284.070,220.589 283.440,220.400 283.000 C 220.183 282.496,220.056 282.422,220.056 282.800 M36.780 287.639 C 36.320 288.540,36.013 289.346,36.097 289.430 C 36.181 289.514,36.641 288.776,37.119 287.791 C 38.209 285.547,37.915 285.415,36.780 287.639 M86.056 288.800 C 86.056 289.130,86.211 289.760,86.400 290.200 C 86.617 290.704,86.744 290.778,86.744 290.400 C 86.744 290.070,86.589 289.440,86.400 289.000 C 86.183 288.496,86.056 288.422,86.056 288.800 M74.056 291.200 C 74.056 291.530,74.211 292.160,74.400 292.600 C 74.617 293.104,74.744 293.178,74.744 292.800 C 74.744 292.470,74.589 291.840,74.400 291.400 C 74.183 290.896,74.056 290.822,74.056 291.200 M222.493 294.000 C 222.493 294.770,222.575 295.085,222.676 294.700 C 222.776 294.315,222.776 293.685,222.676 293.300 C 222.575 292.915,222.493 293.230,222.493 294.000 M137.693 294.800 C 137.693 295.570,137.775 295.885,137.876 295.500 C 137.976 295.115,137.976 294.485,137.876 294.100 C 137.775 293.715,137.693 294.030,137.693 294.800 M12.101 296.200 C 12.105 297.080,12.187 297.393,12.283 296.895 C 12.379 296.398,12.375 295.678,12.275 295.295 C 12.175 294.913,12.096 295.320,12.101 296.200 M97.314 296.600 C 97.317 297.700,97.395 298.103,97.487 297.495 C 97.579 296.886,97.577 295.986,97.482 295.495 C 97.387 295.003,97.311 295.500,97.314 296.600 M151.105 295.083 C 151.602 295.179,152.322 295.175,152.705 295.075 C 153.087 294.975,152.680 294.896,151.800 294.901 C 150.920 294.905,150.607 294.987,151.105 295.083 M21.714 297.400 C 21.717 298.500,21.795 298.903,21.887 298.295 C 21.979 297.686,21.977 296.786,21.882 296.295 C 21.787 295.803,21.711 296.300,21.714 297.400 M154.800 295.725 C 154.800 295.794,155.385 296.379,156.100 297.025 L 157.400 298.200 156.225 296.900 C 155.130 295.688,154.800 295.416,154.800 295.725 M214.501 297.000 C 214.505 297.880,214.587 298.193,214.683 297.695 C 214.779 297.198,214.775 296.478,214.675 296.095 C 214.575 295.713,214.496 296.120,214.501 297.000 M87.724 298.200 C 87.726 299.520,87.801 300.012,87.890 299.293 C 87.979 298.574,87.977 297.494,87.886 296.893 C 87.795 296.292,87.722 296.880,87.724 298.200 M222.953 301.000 C 222.953 303.640,223.018 304.668,223.097 303.284 C 223.175 301.901,223.174 299.741,223.095 298.484 C 223.016 297.228,222.952 298.360,222.953 301.000 M33.724 299.800 C 33.726 301.120,33.801 301.612,33.890 300.893 C 33.979 300.174,33.977 299.094,33.886 298.493 C 33.795 297.892,33.722 298.480,33.724 299.800 M202.537 301.000 C 202.539 302.760,202.609 303.430,202.693 302.489 C 202.778 301.549,202.777 300.109,202.691 299.289 C 202.605 298.470,202.536 299.240,202.537 301.000 M75.731 301.000 C 75.733 302.540,75.805 303.121,75.892 302.291 C 75.979 301.461,75.977 300.201,75.889 299.491 C 75.800 298.781,75.729 299.460,75.731 301.000 M137.293 300.800 C 137.293 301.570,137.375 301.885,137.476 301.500 C 137.576 301.115,137.576 300.485,137.476 300.100 C 137.375 299.715,137.293 300.030,137.293 300.800 M145.731 302.200 C 145.733 303.740,145.805 304.321,145.892 303.491 C 145.979 302.661,145.977 301.401,145.889 300.691 C 145.800 299.981,145.729 300.660,145.731 302.200 M157.693 300.800 C 157.693 301.570,157.775 301.885,157.876 301.500 C 157.976 301.115,157.976 300.485,157.876 300.100 C 157.775 299.715,157.693 300.030,157.693 300.800 M87.720 303.600 C 87.720 304.810,87.795 305.305,87.887 304.700 C 87.978 304.095,87.978 303.105,87.887 302.500 C 87.795 301.895,87.720 302.390,87.720 303.600 M12.114 305.400 C 12.117 306.500,12.195 306.903,12.287 306.295 C 12.379 305.686,12.377 304.786,12.282 304.295 C 12.187 303.803,12.111 304.300,12.114 305.400 M97.314 305.400 C 97.317 306.500,97.395 306.903,97.487 306.295 C 97.579 305.686,97.577 304.786,97.482 304.295 C 97.387 303.803,97.311 304.300,97.314 305.400 M214.501 305.000 C 214.505 305.880,214.587 306.193,214.683 305.695 C 214.779 305.198,214.775 304.478,214.675 304.095 C 214.575 303.713,214.496 304.120,214.501 305.000 M137.693 307.200 C 137.693 307.970,137.775 308.285,137.876 307.900 C 137.976 307.515,137.976 306.885,137.876 306.500 C 137.775 306.115,137.693 306.430,137.693 307.200 M26.900 307.076 C 27.285 307.176,27.915 307.176,28.300 307.076 C 28.685 306.975,28.370 306.893,27.600 306.893 C 26.830 306.893,26.515 306.975,26.900 307.076 M222.493 308.000 C 222.493 308.770,222.575 309.085,222.676 308.700 C 222.776 308.315,222.776 307.685,222.676 307.300 C 222.575 306.915,222.493 307.230,222.493 308.000 M12.493 309.200 C 12.493 309.970,12.575 310.285,12.676 309.900 C 12.776 309.515,12.776 308.885,12.676 308.500 C 12.575 308.115,12.493 308.430,12.493 309.200 M213.246 311.667 C 213.221 312.034,213.096 312.664,212.970 313.067 C 212.752 313.762,212.763 313.763,213.197 313.087 C 213.448 312.696,213.573 312.066,213.473 311.687 C 213.311 311.068,213.288 311.066,213.246 311.667 M85.108 315.508 C 84.235 317.935,84.503 318.204,85.415 315.815 C 85.800 314.807,86.039 313.906,85.947 313.813 C 85.854 313.720,85.476 314.483,85.108 315.508 M199.078 315.005 C 198.712 315.772,198.495 316.400,198.596 316.400 C 198.870 316.400,200.084 313.951,199.901 313.768 C 199.814 313.681,199.444 314.238,199.078 315.005 M148.828 317.400 C 148.828 317.620,149.086 318.250,149.400 318.800 C 149.714 319.350,149.972 319.620,149.972 319.400 C 149.972 319.180,149.714 318.550,149.400 318.000 C 149.086 317.450,148.828 317.180,148.828 317.400 M162.764 317.933 C 162.980 318.336,163.471 318.921,163.855 319.233 C 164.287 319.584,164.190 319.304,163.601 318.500 C 162.551 317.065,162.157 316.798,162.764 317.933 M14.456 318.000 C 14.456 318.330,14.611 318.960,14.800 319.400 C 15.017 319.904,15.144 319.978,15.144 319.600 C 15.144 319.270,14.989 318.640,14.800 318.200 C 14.583 317.696,14.456 317.622,14.456 318.000 M67.986 320.300 L 65.800 322.600 68.100 320.414 C 69.365 319.211,70.400 318.176,70.400 318.114 C 70.400 317.817,70.018 318.163,67.986 320.300 M275.879 318.838 C 280.451 321.051,280.757 327.375,276.435 330.288 C 274.337 331.702,253.270 331.712,251.196 330.300 C 246.790 327.302,246.999 321.215,251.586 318.900 C 254.248 317.556,273.132 317.509,275.879 318.838 M210.278 319.805 C 209.912 320.572,209.695 321.200,209.796 321.200 C 210.070 321.200,211.284 318.751,211.101 318.568 C 211.014 318.481,210.644 319.038,210.278 319.805 M194.386 321.500 L 192.200 323.800 194.500 321.614 C 195.765 320.411,196.800 319.376,196.800 319.314 C 196.800 319.017,196.418 319.363,194.386 321.500 M165.800 321.600 C 166.659 322.480,167.452 323.200,167.562 323.200 C 167.672 323.200,167.059 322.480,166.200 321.600 C 165.341 320.720,164.548 320.000,164.438 320.000 C 164.328 320.000,164.941 320.720,165.800 321.600 M151.000 322.000 C 151.341 322.660,151.711 323.200,151.821 323.200 C 151.931 323.200,151.741 322.660,151.400 322.000 C 151.059 321.340,150.689 320.800,150.579 320.800 C 150.469 320.800,150.659 321.340,151.000 322.000 M80.871 323.700 C 79.917 325.118,79.667 325.650,80.294 324.930 C 81.386 323.677,82.983 321.200,82.699 321.200 C 82.619 321.200,81.796 322.325,80.871 323.700 M62.800 324.000 C 62.030 324.422,61.544 324.774,61.720 324.783 C 62.144 324.805,64.400 323.632,64.400 323.390 C 64.400 323.128,64.377 323.137,62.800 324.000 M190.697 324.366 C 189.053 325.419,188.825 325.791,190.275 325.054 C 190.976 324.697,191.661 324.224,191.798 324.003 C 192.119 323.484,192.023 323.515,190.697 324.366 M206.575 325.868 C 205.959 326.676,205.659 327.211,205.909 327.056 C 206.421 326.740,208.153 324.400,207.875 324.400 C 207.776 324.400,207.191 325.061,206.575 325.868 M153.554 325.936 C 153.999 326.560,154.679 327.325,155.065 327.636 C 155.452 327.946,155.160 327.435,154.417 326.500 C 152.891 324.580,152.325 324.210,153.554 325.936 M54.705 326.283 C 55.202 326.379,55.922 326.375,56.305 326.275 C 56.687 326.175,56.280 326.096,55.400 326.101 C 54.520 326.105,54.207 326.187,54.705 326.283 M76.587 328.900 L 74.200 331.400 76.700 329.013 C 79.022 326.795,79.383 326.400,79.087 326.400 C 79.026 326.400,77.901 327.525,76.587 328.900 M144.000 328.000 C 144.449 328.880,144.906 329.600,145.016 329.600 C 145.126 329.600,144.849 328.880,144.400 328.000 C 143.951 327.120,143.494 326.400,143.384 326.400 C 143.274 326.400,143.551 327.120,144.000 328.000 M90.200 328.800 C 89.859 329.460,89.669 330.000,89.779 330.000 C 89.889 330.000,90.259 329.460,90.600 328.800 C 90.941 328.140,91.131 327.600,91.021 327.600 C 90.911 327.600,90.541 328.140,90.200 328.800 M179.305 327.887 C 179.914 327.979,180.814 327.977,181.305 327.882 C 181.797 327.787,181.300 327.711,180.200 327.714 C 179.100 327.717,178.697 327.795,179.305 327.887 M202.800 330.112 C 201.370 331.486,199.570 333.114,198.800 333.731 C 197.597 334.694,197.657 334.677,199.230 333.609 C 200.857 332.503,206.063 327.589,205.587 327.607 C 205.484 327.611,204.230 328.738,202.800 330.112 M157.000 330.000 C 157.859 330.880,158.652 331.600,158.762 331.600 C 158.872 331.600,158.259 330.880,157.400 330.000 C 156.541 329.120,155.748 328.400,155.638 328.400 C 155.528 328.400,156.141 329.120,157.000 330.000 M49.188 329.622 C 48.946 330.074,48.807 330.622,48.880 330.839 C 48.952 331.057,49.218 330.687,49.471 330.017 C 49.997 328.625,49.839 328.405,49.188 329.622 M20.677 331.631 C 21.075 332.308,21.656 333.073,21.968 333.331 C 22.280 333.589,22.032 333.035,21.415 332.100 C 20.120 330.137,19.609 329.812,20.677 331.631 M72.214 332.446 C 70.113 334.026,69.916 334.287,71.527 333.362 C 72.662 332.710,74.447 331.145,73.962 331.227 C 73.873 331.242,73.086 331.791,72.214 332.446 M212.263 334.100 C 211.002 335.858,210.960 335.972,212.006 334.800 C 213.183 333.482,214.185 332.000,213.899 332.000 C 213.829 332.000,213.092 332.945,212.263 334.100 M164.000 335.398 C 164.000 335.667,168.049 337.684,168.229 337.505 C 168.311 337.423,167.393 336.873,166.189 336.282 C 164.985 335.692,164.000 335.294,164.000 335.398 M25.000 337.200 C 25.859 338.080,26.652 338.800,26.762 338.800 C 26.872 338.800,26.259 338.080,25.400 337.200 C 24.541 336.320,23.748 335.600,23.638 335.600 C 23.528 335.600,24.141 336.320,25.000 337.200 M50.887 336.900 C 51.506 337.505,52.235 337.995,52.506 337.988 C 52.778 337.981,52.640 337.777,52.200 337.533 C 51.760 337.290,51.031 336.800,50.581 336.445 C 50.130 336.090,50.268 336.295,50.887 336.900 M81.991 339.500 L 78.600 343.000 82.100 339.609 C 84.025 337.744,85.600 336.169,85.600 336.109 C 85.600 335.818,85.141 336.249,81.991 339.500 M207.789 339.300 L 205.000 342.200 207.900 339.411 C 210.594 336.820,210.983 336.400,210.689 336.400 C 210.628 336.400,209.323 337.705,207.789 339.300 M62.200 337.200 C 61.696 337.417,61.622 337.544,62.000 337.544 C 62.330 337.544,62.960 337.389,63.400 337.200 C 63.904 336.983,63.978 336.856,63.600 336.856 C 63.270 336.856,62.640 337.011,62.200 337.200 M152.200 339.200 C 153.283 340.300,154.260 341.200,154.370 341.200 C 154.480 341.200,153.683 340.300,152.600 339.200 C 151.517 338.100,150.540 337.200,150.430 337.200 C 150.320 337.200,151.117 338.100,152.200 339.200 M56.300 338.282 C 56.795 338.378,57.605 338.378,58.100 338.282 C 58.595 338.187,58.190 338.109,57.200 338.109 C 56.210 338.109,55.805 338.187,56.300 338.282 M187.800 338.800 C 187.296 339.017,187.222 339.144,187.600 339.144 C 187.930 339.144,188.560 338.989,189.000 338.800 C 189.504 338.583,189.578 338.456,189.200 338.456 C 188.870 338.456,188.240 338.611,187.800 338.800 M176.900 339.887 C 177.505 339.978,178.495 339.978,179.100 339.887 C 179.705 339.795,179.210 339.720,178.000 339.720 C 176.790 339.720,176.295 339.795,176.900 339.887 M181.300 339.887 C 181.905 339.978,182.895 339.978,183.500 339.887 C 184.105 339.795,183.610 339.720,182.400 339.720 C 181.190 339.720,180.695 339.795,181.300 339.887 M28.400 340.525 C 28.400 340.594,28.985 341.179,29.700 341.825 L 31.000 343.000 29.825 341.700 C 28.730 340.488,28.400 340.216,28.400 340.525 M32.200 343.788 C 33.408 344.846,34.800 345.753,34.800 345.482 C 34.800 345.401,33.945 344.751,32.900 344.036 C 31.462 343.052,31.292 342.992,32.200 343.788 M77.000 343.835 L 75.800 344.866 77.100 344.006 C 77.815 343.533,78.400 343.068,78.400 342.973 C 78.400 342.673,78.231 342.778,77.000 343.835 M157.200 343.346 C 157.200 343.456,157.740 343.930,158.400 344.400 C 159.060 344.870,159.600 345.164,159.600 345.054 C 159.600 344.944,159.060 344.470,158.400 344.000 C 157.740 343.530,157.200 343.236,157.200 343.346 M160.000 345.379 C 160.000 345.489,160.540 345.859,161.200 346.200 C 161.860 346.541,162.400 346.731,162.400 346.621 C 162.400 346.511,161.860 346.141,161.200 345.800 C 160.540 345.459,160.000 345.269,160.000 345.379 M196.400 347.400 C 195.410 347.930,194.742 348.372,194.916 348.382 C 195.341 348.406,198.400 346.834,198.400 346.592 C 198.400 346.327,198.417 346.320,196.400 347.400 M53.300 351.491 C 54.125 351.578,55.475 351.578,56.300 351.491 C 57.125 351.405,56.450 351.334,54.800 351.334 C 53.150 351.334,52.475 351.405,53.300 351.491 M178.900 351.491 C 179.725 351.578,181.075 351.578,181.900 351.491 C 182.725 351.405,182.050 351.334,180.400 351.334 C 178.750 351.334,178.075 351.405,178.900 351.491 " stroke="none" fill="#bf6724" fill-rule="evenodd"></path><path id="path5" d="M130.675 54.700 C 119.997 75.635,122.394 101.263,135.664 108.033 C 137.564 109.002,137.599 108.986,141.702 105.212 C 145.418 101.793,145.560 102.990,139.419 86.066 C 132.697 67.545,132.558 65.971,137.426 63.594 C 142.959 60.892,144.785 62.760,149.680 76.129 C 153.548 86.694,153.753 87.092,154.421 85.365 C 157.626 77.087,150.453 57.904,142.668 53.933 C 133.768 49.392,133.370 49.418,130.675 54.700 " stroke="none" fill="#ffca28" fill-rule="evenodd"></path><path id="path6" d="M145.300 55.765 C 148.432 58.842,153.379 68.259,154.624 73.514 C 155.686 77.992,154.956 87.038,153.601 86.200 C 153.380 86.064,153.200 86.017,153.200 86.095 C 153.200 86.584,160.830 106.990,161.122 107.282 C 162.033 108.193,167.767 99.146,169.181 94.568 C 172.703 83.165,163.307 66.786,147.400 56.597 C 144.124 54.499,143.935 54.424,145.300 55.765 M144.200 102.544 C 143.760 103.217,142.023 104.945,140.339 106.384 L 137.278 109.000 138.539 109.554 C 140.482 110.408,146.460 112.000,147.724 112.000 C 149.035 112.000,149.119 112.491,146.667 105.841 L 145.000 101.320 144.200 102.544 M130.800 104.600 C 131.546 105.370,132.247 106.000,132.357 106.000 C 132.467 106.000,131.946 105.370,131.200 104.600 C 130.454 103.830,129.753 103.200,129.643 103.200 C 129.533 103.200,130.054 103.830,130.800 104.600 " stroke="none" fill="#ffb300" fill-rule="evenodd"></path></g></svg>